{"title":"Knight.Rider.S02.720p.BluRay.x264-NTb","uid":12311158,"size":79084895419,"categoryP":"video","categoryS":"tv_shows","magnet":"?xt=urn:btih:8dca739f2e5d902403c43454a130933049f17453&amp;dn=Knight.Rider.S02.720p.BluRay.x264-NTb&amp;tr=udp%3A%2F%2Ftracker.openbittorrent.com%3A80&amp;tr=udp%3A%2F%2Fopen.demonii.com%3A1337&amp;tr=udp%3A%2F%2Ftracker.coppersurfer.tk%3A6969&amp;tr=udp%3A%2F%2Fexodus.desync.com%3A6969","seeders":0,"leechers":3,"uploader":null,"files":21,"time":1440921031,"description":"\n\n &lt;a href=&quot;\nhttp://i.imgur.com/xNNmTFg.jpg&quot; rel=&quot;nofollow&quot; target=&quot;_NEW&quot;&gt;\nhttp://i.imgur.com/xNNmTFg.jpg&lt;/a&gt; &lt;a href=&quot;\nhttp://i.imgur.com/3iHtCwF.jpg&quot; rel=&quot;nofollow&quot; target=&quot;_NEW&quot;&gt;\nhttp://i.imgur.com/3iHtCwF.jpg&lt;/a&gt; &lt;a href=&quot;\nhttp://i.imgur.com/FUvSpXq.jpg&quot; rel=&quot;nofollow&quot; target=&quot;_NEW&quot;&gt;\nhttp://i.imgur.com/FUvSpXq.jpg&lt;/a&gt; &lt;a href=&quot;\nhttp://i.imgur.com/wXm8bPT.png&quot; rel=&quot;nofollow&quot; target=&quot;_NEW&quot;&gt;\nhttp://i.imgur.com/wXm8bPT.png&lt;/a&gt; &lt;a href=&quot;\nhttp://i.imgur.com/CBcuyZx.jpg&quot; rel=&quot;nofollow&quot; target=&quot;_NEW&quot;&gt;\nhttp://i.imgur.com/CBcuyZx.jpg&lt;/a&gt;\n\n\n\n\nKnight.Rider.S02E01E02.Goliath.720p.BluRay.x264-NTb.mkv\n\n\n\nFormat                         : Matroska\nFormat version                 : Version 4 / Version 2\nFile size                      : 5.17 GiB\nDuration                       : 1h 36mn\nOverall bit rate               : 7 705 Kbps\nEncoded date                   : UTC 2015-03-14 09:52:36\nWriting application            : mkvmerge v7.7.0 ('Six Voices') 64bit built on Feb 28 2015 23:39:33\nWriting library                : libebml v1.3.1 + libmatroska v1.4.2\nDURATION                       : 01:36:05.385000000\nNUMBER_OF_FRAMES               : 138231\nNUMBER_OF_BYTES                : 4997983345\n_STATISTICS_WRITING_APP        : mkvmerge v7.7.0 ('Six Voices') 64bit built on Feb 28 2015 23:39:33\n_STATISTICS_WRITING_DATE_UTC   : 2015-03-14 09:52:36\n_STATISTICS_TAGS               : BPS DURATION NUMBER_OF_FRAMES NUMBER_OF_BYTES\n\nVideo\nID                             : 1\nFormat                         : AVC\nFormat/Info                    : Advanced Video Codec\nFormat profile                 : &lt;a class=&quot;__cf_email__&quot; href=&quot;/cdn-cgi/l/email-protection&quot; data-cfemail=&quot;4a02232d220a067e647b&quot;&gt;[email&amp;#160;protected]&lt;/a&gt;&lt;script data-cfhash='f9e31' type=&quot;text/javascript&quot;&gt;\n/* &lt;![CDATA[ */!function(){try{var t=&quot;currentScript&quot;in document?document.currentScript:function(){for(var t=document.getElementsByTagName(&quot;script&quot;),e=t.length;e--;)if(t[e].getAttribute(&quot;data-cfhash&quot;))return t[e]}();if(t&amp;&amp;t.previousSibling){var e,r,n,i,c=t.previousSibling,a=c.getAttribute(&quot;data-cfemail&quot;);if(a){for(e=&quot;&quot;,r=parseInt(a.substr(0,2),16),n=2;a.length-n;n+=2)i=parseInt(a.substr(n,2),16)^r,e+=String.fromCharCode(i);e=document.createTextNode(e),c.parentNode.replaceChild(e,c)}t.parentNode.removeChild(t);}}catch(u){}}()/* ]]&gt; */&lt;/script&gt;\nFormat settings, CABAC         : Yes\nFormat settings, ReFrames      : 11 frames\nCodec ID                       : V_MPEG4/ISO/AVC\nDuration                       : 1h 36mn\nBit rate                       : 6 784 Kbps\nWidth                          : 970 pixels\nHeight                         : 720 pixels\nDisplay aspect ratio           : 4:3\nFrame rate mode                : Constant\nFrame rate                     : 23.976 fps\nColor space                    : YUV\nChroma subsampling             : 4:2:0\nBit depth                      : 8 bits\nScan type                      : Progressive\nBits/(Pixel*Frame)             : 0.405\nStream size                    : 4.55 GiB (88%)\nTitle                          : Knight.Rider.S02E01E02.Goliath.720p.BluRay.x264-NTb\nWriting library                : x264 core 146 r2538 121396c\nEncoding settings              : cabac=1 / ref=11 / deblock=1:-3:-3 / analyse=0x3:0x133 / me=umh / subme=11 / psy=1 / psy_rd=0.95:0.00 / mixed_ref=1 / me_range=32 / chroma_me=1 / trellis=2 / 8x8dct=1 / cqm=0 / deadzone=21,11 / fast_pskip=0 / chroma_qp_offset=-2 / threads=12 / lookahead_threads=2 / sliced_threads=0 / nr=0 / decimate=0 / interlaced=0 / bluray_compat=0 / constrained_intra=0 / bframes=9 / b_pyramid=2 / b_adapt=2 / b_bias=0 / direct=3 / weightb=1 / open_gop=0 / weightp=2 / keyint=240 / keyint_min=23 / scenecut=40 / intra_refresh=0 / rc_lookahead=40 / rc=crf / mbtree=0 / crf=16.5 / qcomp=0.60 / qpmin=0 / qpmax=69 / qpstep=4 / vbv_maxrate=62500 / vbv_bufsize=78125 / crf_max=0.0 / nal_hrd=none / filler=0 / ip_ratio=1.40 / pb_ratio=1.30 / aq=2:0.70\nLanguage                       : English\nDefault                        : Yes\nForced                         : No\n\nAudio\nID                             : 2\nFormat                         : DTS\nFormat/Info                    : Digital Theater Systems\nMode                           : 16\nFormat settings, Endianness    : Big\nCodec ID                       : A_DTS\nDuration                       : 1h 36mn\nBit rate mode                  : Constant\nBit rate                       : 768 Kbps\nChannel(s)                     : 2 channels\nChannel positions              : Front: L R\nSampling rate                  : 48.0 KHz\nBit depth                      : 24 bits\nCompression mode               : Lossy\nStream size                    : 528 MiB (10%)\nTitle                          : English DTS 2.0 @ 768 Kbps\nLanguage                       : English\nDefault                        : Yes\nForced                         : No","torrent":{"xt":"urn:btih:8dca739f2e5d902403c43454a130933049f17453","amp;dn":"Knight.Rider.S02.720p.BluRay.x264-NTb","amp;tr":["udp%3A%2F%2Ftracker.openbittorrent.com%3A80","udp%3A%2F%2Fopen.demonii.com%3A1337","udp%3A%2F%2Ftracker.coppersurfer.tk%3A6969","udp%3A%2F%2Fexodus.desync.com%3A6969"],"infoHash":"8dca739f2e5d902403c43454a130933049f17453","infoHashBuffer":{"type":"Buffer","data":[141,202,115,159,46,93,144,36,3,196,52,84,161,48,147,48,73,241,116,83]},"announce":[],"urlList":[]}}